<?xml version="1.0" encoding="UTF-8" standalone="no"?>
<svg
   xmlns:dc="http://purl.org/dc/elements/1.1/"
   xmlns:cc="http://creativecommons.org/ns#"
   xmlns:rdf="http://www.w3.org/1999/02/22-rdf-syntax-ns#"
   xmlns:svg="http://www.w3.org/2000/svg"
   xmlns="http://www.w3.org/2000/svg"
   viewBox="0 0 1333.3333 1333.3333"
   height="1333.3333"
   width="1333.3333"
   xml:space="preserve"
   id="svg2"
   version="1.1"><metadata
     id="metadata8"><rdf:RDF><cc:Work
         rdf:about=""><dc:format>image/svg+xml</dc:format><dc:type
           rdf:resource="http://purl.org/dc/dcmitype/StillImage" /></cc:Work></rdf:RDF></metadata><defs
     id="defs6"><linearGradient
       id="linearGradient32"
       spreadMethod="pad"
       gradientTransform="matrix(-804.75665,-764.04907,-764.04907,804.75665,754.03381,999.65045)"
       gradientUnits="userSpaceOnUse"
       y2="0"
       x2="1"
       y1="0"
       x1="0"><stop
         id="stop26"
         offset="0"
         style="stop-opacity:1;stop-color:#00dbff" /><stop
         id="stop28"
         offset="0.23033704"
         style="stop-opacity:1;stop-color:#00dbff" /><stop
         id="stop30"
         offset="1"
         style="stop-opacity:1;stop-color:#0000bf" /></linearGradient><linearGradient
       id="linearGradient54"
       spreadMethod="pad"
       gradientTransform="matrix(-804.75665,-764.04907,-764.04907,804.75665,984.09064,757.33649)"
       gradientUnits="userSpaceOnUse"
       y2="0"
       x2="1"
       y1="0"
       x1="0"><stop
         id="stop48"
         offset="0"
         style="stop-opacity:1;stop-color:#00dbff" /><stop
         id="stop50"
         offset="0.23033704"
         style="stop-opacity:1;stop-color:#00dbff" /><stop
         id="stop52"
         offset="1"
         style="stop-opacity:1;stop-color:#0000bf" /></linearGradient><clipPath
       id="clipPath64"
       clipPathUnits="userSpaceOnUse"><path
         id="path62"
         d="m 549.699,827.58 c -5.198,0.437 -10.449,0.659 -15.758,0.659 v 0 z M 717.978,672.612 c 23.113,-6.917 45.113,-17.045 65.477,-30.184 v 0 c -0.2,67.732 -27.235,131.296 -76.053,178.556 v 0 l -157.703,6.596 c 85.213,-7.162 154.324,-71.835 168.279,-154.968" /></clipPath><linearGradient
       id="linearGradient80"
       spreadMethod="pad"
       gradientTransform="matrix(48.535908,165.96149,165.96149,-48.535908,639.65283,670.21002)"
       gradientUnits="userSpaceOnUse"
       y2="0"
       x2="1"
       y1="0"
       x1="0"><stop
         id="stop74"
         offset="0"
         style="stop-opacity:0.50000763;stop-color:#ffffff" /><stop
         id="stop76"
         offset="0.34938892"
         style="stop-opacity:0;stop-color:#ffffff" /><stop
         id="stop78"
         offset="1"
         style="stop-opacity:0;stop-color:#ffffff" /></linearGradient><mask
       id="mask82"
       height="1"
       width="1"
       y="0"
       x="0"
       maskUnits="userSpaceOnUse"><g
         id="g92"><g
           id="g90"><g
             id="g88"><g
               id="g86"><path
                 id="path84"
                 style="fill:url(#linearGradient80);stroke:none"
                 d="M -32768,32767 H 32767 V -32768 H -32768 Z" /></g></g></g></g></mask><linearGradient
       id="linearGradient104"
       spreadMethod="pad"
       gradientTransform="matrix(48.535908,165.96149,165.96149,-48.535908,639.65283,670.21002)"
       gradientUnits="userSpaceOnUse"
       y2="0"
       x2="1"
       y1="0"
       x1="0"><stop
         id="stop98"
         offset="0"
         style="stop-opacity:1;stop-color:#000000" /><stop
         id="stop100"
         offset="0.34938892"
         style="stop-opacity:1;stop-color:#000000" /><stop
         id="stop102"
         offset="1"
         style="stop-opacity:1;stop-color:#000000" /></linearGradient><clipPath
       id="clipPath114"
       clipPathUnits="userSpaceOnUse"><path
         id="path112"
         d="m 565.393,457.651 144.99,7.518 c 24.455,24.456 43.229,53.111 55.596,84.346 v 0 c -15.516,15.13 -33.797,27.451 -54.006,36.081 v 0 C 691.192,519.686 634.746,469.462 565.393,457.651" /></clipPath><linearGradient
       id="linearGradient130"
       spreadMethod="pad"
       gradientTransform="matrix(-36.010509,-101.76884,-101.76884,36.010509,700.04065,600.67218)"
       gradientUnits="userSpaceOnUse"
       y2="0"
       x2="1"
       y1="0"
       x1="0"><stop
         id="stop124"
         offset="0"
         style="stop-opacity:0.50000763;stop-color:#ffffff" /><stop
         id="stop126"
         offset="0.58556923"
         style="stop-opacity:0;stop-color:#ffffff" /><stop
         id="stop128"
         offset="1"
         style="stop-opacity:0;stop-color:#ffffff" /></linearGradient><mask
       id="mask132"
       height="1"
       width="1"
       y="0"
       x="0"
       maskUnits="userSpaceOnUse"><g
         id="g142"><g
           id="g140"><g
             id="g138"><g
               id="g136"><path
                 id="path134"
                 style="fill:url(#linearGradient130);stroke:none"
                 d="M -32768,32767 H 32767 V -32768 H -32768 Z" /></g></g></g></g></mask><linearGradient
       id="linearGradient154"
       spreadMethod="pad"
       gradientTransform="matrix(-36.010509,-101.76884,-101.76884,36.010509,700.04065,600.67218)"
       gradientUnits="userSpaceOnUse"
       y2="0"
       x2="1"
       y1="0"
       x1="0"><stop
         id="stop148"
         offset="0"
         style="stop-opacity:1;stop-color:#000000" /><stop
         id="stop150"
         offset="0.58556923"
         style="stop-opacity:1;stop-color:#000000" /><stop
         id="stop152"
         offset="1"
         style="stop-opacity:1;stop-color:#000000" /></linearGradient></defs><g
     transform="matrix(1.3333333,0,0,-1.3333333,0,1333.3333)"
     id="g10"><path
       id="path12"
       style="fill:#f4f4f4;fill-opacity:1;fill-rule:nonzero;stroke:none"
       d="M 0,0 H 1000 V 1000 H 0 Z" /><g
       id="g14"><g
         id="g16"><g
           id="g22"><g
             id="g24"><path
               id="path34"
               style="fill:url(#linearGradient32);stroke:none"
               d="m 257.872,891 c -27.549,0 -51.725,-18.356 -59.126,-44.893 v 0 L 109.808,527.199 c -10.912,-39.126 18.507,-77.87 59.126,-77.87 v 0 h 54.267 l -77.043,-276.256 154.996,203.69 62.9,82.663 43.195,56.766 c 30.75,40.41 1.931,98.553 -48.848,98.553 v 0 h -11.254 l 16.907,60.63 42.472,152.323 h 127.39 c 92.343,0 169.231,-67.422 184.037,-155.628 v 0 c 23.112,-6.916 45.113,-17.044 65.477,-30.183 v 0 c -0.2,67.732 -27.235,131.296 -76.053,178.556 v 0 c -47.028,45.53 -110.438,70.156 -175.9,70.156 v 0 H 424.066 l 0.108,0.401 z" /></g></g></g></g><g
       id="g36"><g
         id="g38"><g
           id="g44"><g
             id="g46"><path
               id="path56"
               style="fill:url(#linearGradient54);stroke:none"
               d="m 533.902,672.534 c -17.37,0 -31.45,-14.081 -31.45,-31.465 v 0 -218.065 c 0,-17.369 14.096,-31.465 31.465,-31.465 v 0 c 66.637,0 129.305,25.969 176.44,73.09 v 0 c 24.456,24.455 43.231,53.11 55.598,84.344 v 0 c -15.517,15.131 -33.797,27.452 -54.007,36.082 v 0 C 691.167,519.145 634.72,468.921 565.367,457.11 v 0 152.509 h 75.575 c 101.298,0 185.658,-79.945 188.545,-181.196 v 0 C 832.467,324.27 749.605,238.381 646.563,236.405 v 0 c -0.433,0 -44.45,-0.016 -100.248,-0.016 v 0 5.065 c 0,35.834 -29.334,65.169 -65.169,65.169 v 0 h -98.488 c -10.189,0 -18.526,-8.337 -18.526,-18.528 v 0 -20.843 h -67.933 c -4.663,0 -8.924,-1.914 -11.997,-4.986 v 0 c -3.072,-3.072 -4.987,-7.334 -4.987,-11.997 v 0 c 0,-9.34 7.643,-16.983 16.984,-16.983 v 0 h 67.933 v -50.95 h -67.933 c -4.663,0 -8.924,-1.914 -11.997,-4.986 v 0 c -3.072,-3.072 -4.987,-7.334 -4.987,-11.997 v 0 c 0,-9.341 7.643,-16.983 16.984,-16.983 v 0 h 67.933 v -20.843 c 0,-10.189 8.337,-18.527 18.526,-18.527 v 0 h 98.488 c 35.602,0 64.798,28.964 65.169,64.49 v 0 c 56.508,0.016 101.297,0.016 101.806,0.031 v 0 c 63.054,1.266 122.249,25.815 167.702,69.538 v 0 c 48.464,46.611 76.255,111.178 76.657,178.433 v 0 c 0.401,69.368 -27.297,134.537 -77.737,182.476 v 0 C 767.9,648.526 705.185,672.534 640.541,672.534 v 0 z" /></g></g></g></g><g
       id="g58"><g
         clip-path="url(#clipPath64)"
         id="g60"><g
           id="g66"><g
             id="g68" /><g
             mask="url(#mask82)"
             id="g94"><g
               id="g96"><path
                 id="path106"
                 style="fill:url(#linearGradient104);stroke:none"
                 d="m 549.699,827.58 c -5.198,0.437 -10.449,0.659 -15.758,0.659 v 0 z M 717.978,672.612 c 23.113,-6.917 45.113,-17.045 65.477,-30.184 v 0 c -0.2,67.732 -27.235,131.296 -76.053,178.556 v 0 l -157.703,6.596 c 85.213,-7.162 154.324,-71.835 168.279,-154.968" /></g></g></g></g></g><g
       id="g108"><g
         clip-path="url(#clipPath114)"
         id="g110"><g
           id="g116"><g
             id="g118" /><g
             mask="url(#mask132)"
             id="g144"><g
               id="g146"><path
                 id="path156"
                 style="fill:url(#linearGradient154);stroke:none"
                 d="m 565.393,457.651 144.99,7.518 c 24.455,24.456 43.229,53.111 55.596,84.346 v 0 c -15.516,15.13 -33.797,27.451 -54.006,36.081 v 0 C 691.192,519.686 634.746,469.462 565.393,457.651" /></g></g></g></g></g></g></svg>