<svg xmlns="http://www.w3.org/2000/svg" viewBox="0 0 1200 800" role="img" aria-labelledby="title desc">
  <title id="title">Default Subcategory</title>
  <desc id="desc">Default image for subcategories</desc>
  <defs>
    <linearGradient id="bg" x1="0" y1="0" x2="1" y2="1">
      <stop offset="0%" stop-color="#111827"/>
      <stop offset="100%" stop-color="#1f2937"/>
    </linearGradient>
    <linearGradient id="chip" x1="0" y1="0" x2="1" y2="1">
      <stop offset="0%" stop-color="#f59e0b"/>
      <stop offset="100%" stop-color="#f97316"/>
    </linearGradient>
  </defs>
  <rect width="1200" height="800" fill="url(#bg)"/>
  <path d="M0 620 C240 540, 420 760, 660 670 C860 595, 980 700, 1200 620 L1200 800 L0 800 Z" fill="#ffffff" opacity="0.06"/>
  <rect x="120" y="150" width="960" height="500" rx="30" fill="#ffffff" opacity="0.08"/>
  <rect x="190" y="250" width="360" height="300" rx="22" fill="#ffffff" opacity="0.14"/>
  <rect x="620" y="250" width="390" height="22" rx="11" fill="#ffffff" opacity="0.48"/>
  <rect x="620" y="300" width="300" height="16" rx="8" fill="#ffffff" opacity="0.24"/>
  <rect x="620" y="342" width="240" height="16" rx="8" fill="#ffffff" opacity="0.2"/>
  <rect x="620" y="462" width="240" height="56" rx="18" fill="url(#chip)" opacity="0.88"/>
  <text x="220" y="448" font-family="Arial, sans-serif" font-size="78" font-weight="700" fill="#f9fafb">SOUS-CATEGORIE</text>
  <text x="220" y="518" font-family="Arial, sans-serif" font-size="34" font-weight="500" fill="#d1d5db">IMAGE PAR DEFAUT</text>
</svg>
